# Blender v2.83.3 OBJ File: 'UnitedRegionsModels.blend'
# www.blender.org
o Tree_Cube.001
v 2.000000 0.000000 -1.939139
v 0.000000 0.000000 -1.939139
v 2.000000 0.000000 0.000000
v 0.000000 0.000000 0.000000
v 1.684636 0.100000 -1.734632
v 0.315364 0.100000 -1.734632
v 1.586497 0.100000 -0.538451
v 0.413503 0.100000 -0.538451
v 1.234229 1.223410 -1.512587
v 0.765771 1.223410 -1.512587
v 1.099887 1.195685 -0.965071
v 0.900113 1.195685 -0.965071
v -0.281846 1.042729 0.102546
v 2.263618 0.620084 -0.167736
v -0.310013 1.661609 -2.307347
v 2.351356 1.092364 -2.561033
v 0.056938 1.422513 -0.300231
v 1.943062 1.422513 -0.300231
v -0.156660 1.999789 -2.182036
v 2.156660 1.999789 -2.182036
v 0.275247 2.066952 -0.675294
v 1.724753 2.066952 -0.675294
v 0.263893 2.337319 -2.213883
v 1.736107 2.337319 -2.213883
v 1.000000 3.000000 -1.630363
v 1.000000 2.512363 -1.595801
v 1.000000 2.234792 -1.681499
v 1.234229 1.223410 -1.512587
v 0.765771 1.223410 -1.512587
v 1.099887 1.195685 -0.965071
v 0.900113 1.195685 -0.965071
vt 1.000000 0.546875
vt 1.000000 -0.000000
vt 0.671875 0.546875
vt 0.640625 0.671875
vt 0.890625 0.671875
vt 0.828125 0.812500
vt 0.703125 0.812500
vt 0.718750 0.953125
vt 0.531250 0.953125
vt 0.671875 0.953125
vt 1.000000 0.953125
vt 1.000000 0.562500
vt 0.531250 0.562500
vt 0.859375 0.953125
vt 0.812500 0.953125
vt 0.531250 1.000000
vt 0.531250 0.531250
vt 0.265625 1.000000
vt 0.343750 0.343750
vt 0.343750 0.000000
vt 0.171875 0.343750
vt -0.000000 0.343750
vt 0.000000 0.000000
vt 0.000000 1.000000
vt 0.000000 0.531250
vt 0.343750 0.546875
vt 0.343750 -0.000000
vt 0.703125 0.812500
vt 0.828125 0.812500
vt 0.812500 0.953125
vt 0.718750 0.953125
vn -0.4784 0.8491 0.2236
vn -0.0668 0.8511 0.5207
vn 0.1332 0.9090 0.3949
vn -0.2922 0.9144 0.2802
vn 0.2922 0.9144 0.2802
vn 0.4964 0.4975 0.7114
vn -0.4964 0.4975 0.7114
vn -0.8950 0.4173 0.1577
vn -0.2938 0.9557 0.0185
vn -0.6059 0.7940 0.0497
vn 0.2938 0.9557 0.0185
vn 0.0998 0.9892 0.1071
vn -0.0998 0.9892 0.1071
vn 0.6059 0.7940 0.0497
vn 0.8950 0.4173 0.1577
vn -0.5107 0.8040 0.3046
vn -0.2177 0.8191 0.5306
vn 0.0000 0.8912 0.4536
vn -0.7170 0.6857 0.1258
vn -0.3343 0.7883 0.5164
vn 0.0000 0.9221 0.3870
vn 0.7170 0.6857 0.1258
vn 0.3343 0.7883 0.5164
vn 0.5107 0.8040 0.3046
vn 0.2177 0.8191 0.5306
vn 0.6968 0.6984 0.1634
vn 0.4436 0.7727 0.4540
vn 0.0000 0.9987 0.0506
s 1
f 15/1/1 13/2/2 27/3/3
f 8/4/4 7/5/5 11/6/6 12/7/7
f 8/4/4 12/7/7 10/8/8
f 2/9/9 8/4/4 6/10/10
f 1/11/11 7/5/5 3/12/12
f 4/13/13 3/12/12 7/5/5 8/4/4
f 8/4/4 10/8/8 6/10/10
f 7/5/5 5/14/14 9/15/15
f 9/15/15 11/6/6 7/5/5
f 19/16/16 17/17/17 26/18/18
f 23/19/19 21/20/20 25/21/21
f 24/22/22 25/21/21 22/23/23
f 22/23/23 25/21/21 21/20/20
f 20/24/24 26/18/18 18/25/25
f 18/25/25 26/18/18 17/17/17
f 16/26/26 27/3/3 14/27/27
f 14/27/27 27/3/3 13/2/2
f 31/28/28 30/29/28 28/30/28 29/31/28
f 1/11/11 5/14/14 7/5/5
f 2/9/9 4/13/13 8/4/4
